<svg xmlns="http://www.w3.org/2000/svg" version="1.1" xmlns:xlink="http://www.w3.org/1999/xlink" xmlns:svgjs="http://svgjs.dev/svgjs" width="1440" height="859" preserveAspectRatio="none" viewBox="0 0 1440 859"><g mask="url(&quot;#SvgjsMask1222&quot;)" fill="none"><rect width="1440" height="859" x="0" y="0" fill="url(&quot;#SvgjsLinearGradient1223&quot;)"></rect><path d="M841.17 122.85L867.47 122.85L867.47 149.15L841.17 149.15z" stroke="#d3b714"></path><path d="M1130.29 152.28L1165.18 152.28L1165.18 168.92L1130.29 168.92z" fill="#d3b714"></path><path d="M969.16 804.16a28.3 28.3 0 1 0 40.92 39.11z" stroke="#e73635"></path><path d="M1032.62 275.9L1044.55 275.9L1044.55 340.57L1032.62 340.57z" fill="#e73635"></path><path d="M1268.01 353.53a62.42 62.42 0 1 0 39.5 118.43z" fill="#d3b714"></path><path d="M1205.67 853.15L1284.03 853.15L1284.03 931.51L1205.67 931.51z" fill="#e73635"></path><path d="M558.41 108.2a11.24 11.24 0 1 0 21.78 5.54z" stroke="#e73635"></path><path d="M83.24 228.49 a49.04 49.04 0 1 0 98.08 0 a49.04 49.04 0 1 0 -98.08 0z" stroke="#037b0b"></path><path d="M435.94 392.57 a81.72 81.72 0 1 0 163.44 0 a81.72 81.72 0 1 0 -163.44 0z" stroke="#e73635"></path><path d="M398.7 435.61 a70.85 70.85 0 1 0 141.7 0 a70.85 70.85 0 1 0 -141.7 0z" fill="#037b0b"></path><path d="M15.47 125.65L27.63 125.65L27.63 137.81L15.47 137.81z" fill="#037b0b"></path><path d="M533.3 422.28a33.55 33.55 0 1 0 40.17-53.75z" stroke="#037b0b"></path><path d="M492.89 191.14 a2.62 2.62 0 1 0 5.24 0 a2.62 2.62 0 1 0 -5.24 0z" fill="#037b0b"></path><path d="M556.66 415.67L614.17 415.67L614.17 501.31L556.66 501.31z" fill="#037b0b"></path><path d="M207.87 294.87a35.86 35.86 0 1 0 70.58 12.72z" stroke="#e73635"></path><path d="M459.54 474.02L473.63 474.02L473.63 488.11L459.54 488.11z" stroke="#e73635"></path><path d="M427.65 63.17L437 63.17L437 72.52L427.65 72.52z" stroke="#037b0b"></path><path d="M190.27 695.29L215.19 695.29L215.19 717.8L190.27 717.8z" stroke="#037b0b"></path><path d="M603.92 696.7L649.63 696.7L649.63 742.41L603.92 742.41z" fill="#d3b714"></path><path d="M1226.83 199.55L1279.08 199.55L1279.08 236.13L1226.83 236.13z" fill="#e73635"></path><path d="M286.4 709.74a19.22 19.22 0 1 0 1.01 38.43z" stroke="#d3b714"></path></g><defs><mask id="SvgjsMask1222"><rect width="1440" height="859" fill="#ffffff"></rect></mask><linearGradient x1="10.09%" y1="-16.91%" x2="89.91%" y2="116.91%" gradientUnits="userSpaceOnUse" id="SvgjsLinearGradient1223"><stop stop-color="#0e2a47" offset="0"></stop><stop stop-color="rgba(0, 0, 0, 1)" offset="1"></stop></linearGradient></defs></svg>